<svg height="18" viewBox="0 0 18 18" width="18" xmlns="http://www.w3.org/2000/svg"><g fill="none" fill-rule="evenodd" transform="translate(-7 -7)"><path d="m32 16c0 8.837-7.163 16-16 16-8.836 0-16-7.163-16-16 0-8.836 7.164-16 16-16 8.837 0 16 7.164 16 16z"/><g stroke="#4caf50" stroke-linecap="round" stroke-linejoin="round" stroke-width="1.5" transform="translate(8 8)"><path d="m10.6666667 11.5555556h-5.33333337s1.77705097 0 1.77705097-2.10555377c0-1.21370429-.73916598-2.71811619-.65630962-3.79892557.09157809-1.19916891 2.39411284-1.5469798 3.48977923-.85135801"/><path d="m16 8c0 4.4177778-3.5813333 8-8 8-4.41777778 0-8-3.5822222-8-8 0-4.41777778 3.58222222-8 8-8 4.4186667 0 8 3.58222222 8 8z"/><path d="m5.555556 8h3"/></g></g></svg>